#!OML:ASF H:\Male1\Project 1\Capture day 1\Session 1\Male1.ASF
:FULLY-SPECIFIED
:DEGREES
360
root 15.4335 14.8639 0.389488 193.154 72.9021 -166.142
lowerback 26.3765 0.152042 -6.12815
upperback 15.7317 1.1035 -4.28685
thorax 3.11857 1.23413 -1.41299
lowerneck -3.05057 7.60116 11.6781
upperneck 4.08074 10.0651 -9.33311
head 2.7733 4.96015 -4.27984
rclavicle 7.15625e-014 -6.83819e-014
rhumerus -28.7343 8.4801 -89.0409
rradius 52.4877
rwrist -28.6083
rhand -18.3545 5.78605
rfingers 7.12502
rthumb 7.92815 -24.0453
lclavicle 7.15625e-014 -6.83819e-014
lhumerus 6.73128 -7.18319 76.2702
lradius 30.0898
lwrist 4.75347
lhand -30.0135 12.1569
lfingers 7.12502
lthumb -3.33049 42.1106
rfemur -32.5093 3.29138 25.7358
rtibia 50.4138
rfoot -19.0489 -22.9771
rtoes -25.6604
lfemur -33.1887 -0.564624 -15.4332
ltibia 40.2185
lfoot -8.71115 13.1492
ltoes -14.0896
361
root 15.5317 14.8432 0.39248 193.663 71.9398 -166.561
lowerback 27.5251 -0.0789688 -6.11066
upperback 16.2056 0.912924 -4.33862
thorax 3.16136 1.2013 -1.45909
lowerneck -2.75143 7.59333 11.7833
upperneck 2.81682 10.0266 -9.71727
head 2.37045 4.94011 -4.44814
rclavicle -4.6118e-014 9.54166e-015
rhumerus -28.5695 8.85694 -89.1834
rradius 53.1667
rwrist -28.8914
rhand -18.1141 5.59603
rfingers 7.12502
rthumb 8.16017 -24.2264
lclavicle -4.6118e-014 9.54166e-015
lhumerus 9.89944 -7.63609 75.8917
lradius 29.773
lwrist 4.68308
lhand -30.3071 12.3217
lfingers 7.12502
lthumb -3.61399 42.2708
rfemur -34.0214 4.72452 24.6741
rtibia 46.9745
rfoot -17.6107 -22.1308
rtoes -28.3992
lfemur -34.7133 -0.56548 -15.4323
ltibia 41.4197
lfoot -9.13399 12.4227
ltoes -14.6987
362
root 15.628 14.8184 0.400148 194.39 70.9564 -166.847
lowerback 28.6016 -0.326958 -6.05018
upperback 16.6272 0.706694 -4.36285
thorax 3.1847 1.15841 -1.49095
lowerneck -2.44903 7.5841 11.8492
upperneck 1.60189 9.98877 -10.0514
head 1.97871 4.92479 -4.59572
rclavicle -4.29375e-014 -9.85972e-014
rhumerus -28.4646 9.32126 -89.315
rradius 53.8174
rwrist -29.1293
rhand -17.8043 5.27741
rfingers 7.12502
rthumb 8.45919 -24.5332
lclavicle -4.29375e-014 -9.85972e-014
lhumerus 13.0272 -8.09955 75.4502
lradius 29.3591
lwrist 4.53084
lhand -30.5342 12.478
lfingers 7.12502
lthumb -3.83338 42.4233
rfemur -35.4574 6.1188 23.5864
rtibia 44.0586
rfoot -15.6237 -21.1621
rtoes -31.1085
lfemur -36.3918 -0.505008 -15.3788
ltibia 42.6494
lfoot -9.47618 11.6095
ltoes -15.3499
363
root 15.7205 14.7896 0.412635 195.165 69.98 -167.147
lowerback 29.6086 -0.576507 -6.01226
upperback 17.0083 0.492762 -4.36792
thorax 3.20114 1.10543 -1.48248
lowerneck -2.16358 7.57534 11.8491
upperneck 0.45029 9.95308 -10.3077
head 1.60251 4.91407 -4.70898
rclavicle 1.27222e-014 -8.74653e-014
rhumerus -28.3963 9.88334 -89.4239
rradius 54.4205
rwrist -29.3332
rhand -17.4319 4.84291
rfingers 7.12502
rthumb 8.81854 -24.9528
lclavicle 1.27222e-014 -8.74653e-014
lhumerus 16.1014 -8.52551 74.9609
lradius 28.868
lwrist 4.26544
lhand -30.6943 12.6192
lfingers 7.12502
lthumb -3.98794 42.5617
rfemur -36.8287 7.18651 22.6117
rtibia 41.9298
rfoot -13.5592 -20.3134
rtoes -33.319
lfemur -38.1771 -0.390126 -15.3279
ltibia 43.888
lfoot -9.76505 10.7333
ltoes -16.1984
364
root 15.8078 14.7586 0.430838 195.999 69.0437 -167.413
lowerback 30.5568 -0.804124 -6.02174
upperback 17.3566 0.294362 -4.34947
thorax 3.21464 1.05169 -1.42092
lowerneck -1.89814 7.56815 11.7846
upperneck -0.628243 9.92174 -10.4898
head 1.24533 4.90827 -4.78879
rclavicle 4.77083e-015 6.83819e-014
rhumerus -28.3548 10.5201 -89.5064
rradius 54.9665
rwrist -29.5159
rhand -17.0282 4.32981
rfingers 7.12502
rthumb 9.20814 -25.4491
lclavicle 4.77083e-015 6.83819e-014
lhumerus 19.1001 -8.86581 74.4518
lradius 28.3198
lwrist 3.85907
lhand -30.7832 12.7714
lfingers 7.12502
lthumb -4.07376 42.7122
rfemur -38.1745 7.74574 21.9391
rtibia 40.7097
rfoot -11.6994 -19.7701
rtoes -35.0341
lfemur -40.0244 -0.208173 -15.2667
ltibia 45.1382
lfoot -10.0466 9.83567
ltoes -17.2506
